<?xml version="1.0" encoding="UTF-8" standalone="no"?>
<!DOCTYPE svg PUBLIC "-//W3C//DTD SVG 1.1//EN" "http://www.w3.org/Graphics/SVG/1.1/DTD/svg11.dtd">
<svg width="100%" height="100%" viewBox="0 0 48 49" version="1.1" xmlns="http://www.w3.org/2000/svg" xmlns:xlink="http://www.w3.org/1999/xlink" xml:space="preserve" style="fill-rule:evenodd;clip-rule:evenodd;stroke-linejoin:round;stroke-miterlimit:1.41421;">
    <g>
        <clipPath id="_clip1">
            <rect x="0" y="0" width="48" height="49"/>
        </clipPath>
        <g clip-path="url(#_clip1)">
            <clipPath id="_clip2">
                <rect x="0" y="0.129" width="49" height="48"/>
            </clipPath>
            <g clip-path="url(#_clip2)">
                <path d="M47.781,23.48L24.574,0.363C24.262,0.05 23.754,0.05 23.441,0.363L0.23,23.48C-0.081,23.793 -0.074,24.293 0.23,24.609C0.391,24.773 0.594,24.855 0.797,24.855L0.797,24.859L6.398,24.859L6.398,47.203C6.398,47.422 6.488,47.621 6.633,47.765C6.781,47.91 6.98,48 7.199,48L18.398,48C18.844,48 19.199,47.64 19.199,47.203L19.199,31.246L28.801,31.246L28.801,47.203C28.801,47.64 29.16,48 29.602,48L40.801,48C41.242,48 41.602,47.64 41.602,47.203L41.602,24.859L47.238,24.859C47.449,24.863 47.648,24.781 47.781,24.613C48.055,24.261 48.094,23.793 47.781,23.48Z" style="fill:white;"/>
            </g>
        </g>
    </g>
</svg>
